<?xml version="1.0" encoding="utf-8"?>
<!-- Generator: Adobe Illustrator 16.0.0, SVG Export Plug-In . SVG Version: 6.00 Build 0)  -->
<!DOCTYPE svg PUBLIC "-//W3C//DTD SVG 1.1//EN" "http://www.w3.org/Graphics/SVG/1.1/DTD/svg11.dtd">
<svg version="1.1" id="Layer_1" xmlns="http://www.w3.org/2000/svg" xmlns:xlink="http://www.w3.org/1999/xlink" x="0px" y="0px"
	 width="400px" height="400px" viewBox="0 0 400 400" enable-background="new 0 0 400 400" xml:space="preserve">
<g>
	<path fill-rule="evenodd" clip-rule="evenodd" fill="#1E92CD" d="M315.961,287.078c-81.739,0-163.138,0-244.871,0
		c0-1.112,0-2.095,0-3.077c0-47.395-0.005-94.789,0.003-142.184c0.002-11.036,6.678-17.725,17.679-17.726
		c69.85-0.005,139.7-0.006,209.549,0c10.897,0.001,17.63,6.66,17.633,17.474c0.013,47.579,0.006,95.158,0.006,142.737
		C315.961,285.124,315.961,285.944,315.961,287.078z M298.041,269.394c0-42.656,0-85.019,0-127.39c-69.81,0-139.413,0-209.029,0
		c0,42.562,0,84.925,0,127.39C158.751,269.394,228.29,269.394,298.041,269.394z"/>
	<path fill-rule="evenodd" clip-rule="evenodd" fill="#1E92CD" d="M36.4,296.684c38.959,0,77.488,0,115.98,0
		c2.136,7.212,4.373,8.859,11.917,8.859c19.328,0.002,38.655,0.002,57.984,0.002c8.167-0.001,9.904-1.22,12.504-8.848
		c38.484,0,77.009,0,115.775,0c0.205,4.453-0.905,8.486-2.955,12.202c-5.319,9.645-13.636,14.432-24.603,14.454
		c-25.678,0.053-51.357,0.02-77.036,0.02c-60.469,0-120.938,0.006-181.408-0.004c-14.694-0.003-25.67-9.151-27.856-23.174
		C36.536,299.119,36.512,298.022,36.4,296.684z"/>
	<path fill-rule="evenodd" clip-rule="evenodd" fill="#1E92CD" d="M363.596,140.146c-3.46,0-6.734,0-10.21,0
		c-0.486-14.695-5.573-27.381-15.968-37.728c-10.318-10.272-22.945-15.272-37.52-15.762c0-3.474,0-6.738,0-9.998
		C332.021,75.386,364.022,103.467,363.596,140.146z"/>
	<path fill-rule="evenodd" clip-rule="evenodd" fill="#1E92CD" d="M337.452,140.069c-0.933-21.368-16.867-36.692-37.688-37.481
		c0-1.683,0-3.39,0-5.096c0-1.641,0-3.282,0-4.905c22.119-1.541,48.184,18.487,47.913,47.482
		C344.343,140.069,341.001,140.069,337.452,140.069z"/>
	<path fill-rule="evenodd" clip-rule="evenodd" fill="#1E92CD" d="M331.779,140.152c-3.466,0-6.733,0-10.107,0
		c-1.545-12.919-8.718-20.205-21.754-21.76c0-3.283,0-6.547,0-9.807C313.725,107.183,331.911,120.172,331.779,140.152z"/>
</g>
</svg>
