<?xml version="1.0" encoding="utf-8"?>
<!-- Generator: Adobe Illustrator 16.0.0, SVG Export Plug-In . SVG Version: 6.00 Build 0)  -->
<!DOCTYPE svg PUBLIC "-//W3C//DTD SVG 1.1//EN" "http://www.w3.org/Graphics/SVG/1.1/DTD/svg11.dtd">
<svg version="1.1" id="Layer_1" xmlns="http://www.w3.org/2000/svg" xmlns:xlink="http://www.w3.org/1999/xlink" x="0px" y="0px"
	 width="400px" height="400px" viewBox="0 0 400 400" enable-background="new 0 0 400 400" xml:space="preserve">
<g id="_x30_3Rbj0.tif">
	<g>
		<path fill="#FFFFFF" d="M313.545,337.375c-20.653,0-41.306,0-61.959,0c0.005-0.607,0.016-1.214,0.016-1.82
			c0.001-37.566,0.001-75.131,0.001-112.696c0-0.588,0-1.177,0-1.854c0.749,0,1.304,0,1.858,0c11.308,0,22.614,0,33.922,0
			c3.373,0,3.312-0.008,3.73-3.311c1.438-11.346,2.926-22.687,4.389-34.03c0.339-2.624,0.657-5.251,1.007-8.054
			c-15.041,0-29.917,0-44.906,0c0-0.473,0-0.792,0-1.111c0.004-9.624-0.023-19.25,0.036-28.874c0.014-2.093,0.215-4.204,0.533-6.274
			c1.202-7.803,5.526-12.366,13.288-13.906c2.46-0.489,4.995-0.781,7.5-0.814c7.849-0.104,15.698-0.043,23.548-0.047
			c0.497,0,0.994,0,1.524,0c0-13.606,0-27.04,0-40.537c-0.334-0.051-0.601-0.1-0.869-0.129c-11.253-1.212-22.543-1.656-33.854-1.682
			c-6.998-0.017-13.888,0.776-20.597,2.818c-15.538,4.731-26.645,14.436-32.911,29.507c-3.736,8.983-5.002,18.42-5.016,28.072
			c-0.014,10.419-0.004,20.838-0.004,31.257c0,0.544,0,1.087,0,1.786c-13.127,0-26.085,0-39.073,0c0,15.178,0,30.197,0,45.368
			c13.06,0,26.021,0,39.073,0c0,0.705,0,1.259,0,1.812c0,13.363,0.002,26.727,0,40.089c-0.004,24.811-0.01,49.62-0.016,74.43
			c-39.436,0-78.874,0-118.311,0c-0.253-0.088-0.5-0.215-0.762-0.26c-11.125-1.938-18.469-8.262-21.973-18.995
			c-0.485-1.486-0.736-3.049-1.095-4.575c0-75.697,0-151.393,0-227.09c0.087-0.254,0.215-0.502,0.258-0.765
			c1.536-9.535,6.621-16.488,15.364-20.562c2.568-1.196,5.463-1.689,8.208-2.504c75.697,0,151.393,0,227.09,0
			c0.254,0.087,0.501,0.221,0.764,0.257c10.602,1.453,19.395,9.182,22.146,19.513c0.379,1.428,0.617,2.894,0.921,4.342
			c0,75.509,0,151.019,0,226.527c-0.089,0.354-0.212,0.702-0.263,1.061c-1.515,10.799-9.378,19.58-19.933,22.234
			C315.976,336.86,314.757,337.104,313.545,337.375z"/>
	</g>
</g>
</svg>
