<?xml version="1.0" encoding="utf-8"?>
<!-- Generator: Adobe Illustrator 16.0.0, SVG Export Plug-In . SVG Version: 6.00 Build 0)  -->
<!DOCTYPE svg PUBLIC "-//W3C//DTD SVG 1.1//EN" "http://www.w3.org/Graphics/SVG/1.1/DTD/svg11.dtd">
<svg version="1.1" id="Layer_1" xmlns="http://www.w3.org/2000/svg" xmlns:xlink="http://www.w3.org/1999/xlink" x="0px" y="0px"
	 width="400px" height="400px" viewBox="0 0 400 400" enable-background="new 0 0 400 400" xml:space="preserve">
<g>
	<path fill-rule="evenodd" clip-rule="evenodd" fill="#1E92CD" d="M99.657,114.936c5.587-6.806,11.079-13.511,16.591-20.2
		c1.452-1.761,2.904-3.528,4.471-5.183c1.467-1.548,1.9-1.491,3.849-0.397c5.085,2.852,10.223,5.615,15.267,8.538
		c1.734,1.006,3.27,1.047,5.188,0.529c5.827-1.572,11.724-2.877,17.59-4.3c1.768-0.429,3.52-0.921,5.286-1.354
		c4.865-1.191,9.732-2.375,14.604-3.543c2.586-0.622,3.507-1.814,3.774-4.577c0.35-3.615,0.902-7.21,1.224-10.827
		c0.223-2.499,0.2-5.019,0.295-7.778c0.888-0.059,1.651-0.122,2.416-0.16c4.559-0.224,9.173-0.082,13.663-0.76
		c4.921-0.743,9.827-0.318,14.728-0.673c2.365-0.171,4.736-0.264,7.346-0.407c0.07,0.774,0.218,1.65,0.221,2.528
		c0.02,6.201-0.002,12.402,0.017,18.603c0.009,2.889,0.173,3.118,2.706,4.047c7.715,2.826,15.448,5.608,23.153,8.467
		c4.813,1.786,9.621,3.598,14.361,5.565c1.793,0.743,3.289,0.622,4.866-0.344c5.265-3.222,10.559-6.396,15.804-9.649
		c1.434-0.89,2.515-2.367,4.664-2.615c6.467,7.31,13.028,14.728,19.814,22.401c-1.422,1.634-2.77,3.288-4.227,4.839
		c-4.149,4.417-8.293,8.842-12.548,13.154c-1.402,1.421-1.365,2.664-0.537,4.296c3.516,6.926,6.973,13.883,10.422,20.841
		c2.338,4.714,4.697,9.419,6.9,14.196c0.672,1.458,1.661,1.686,3.005,1.683c6.201-0.018,12.402-0.008,18.604-0.008
		c1.14,0,2.281,0,3.382,0c0.68,2.773,0.909,26.207,0.386,35.872c-3.06,1.609-6.445,0.898-9.686,1.258
		c-3.95,0.439-7.903,0.862-11.855,1.274c-0.796,0.083-1.6,0.084-2.761,0.14c-0.508,1.248-1.146,2.557-1.576,3.931
		c-1.636,5.227-3.18,10.482-4.806,15.713c-1.9,6.104-3.788,12.215-5.806,18.28c-0.81,2.436-0.746,4.45,0.692,6.774
		c3.185,5.148,5.985,10.533,8.929,15.83c0.103,0.184,0.059,0.445,0.125,1.061c-4.63,4.381-9.409,8.954-14.248,13.463
		c-4.757,4.435-9.575,8.802-14.516,13.338c-0.884-0.766-1.57-1.322-2.214-1.924c-2.678-2.503-5.398-4.966-7.996-7.551
		c-1.859-1.851-3.546-3.874-5.403-5.922c-0.927,0.401-1.758,0.727-2.558,1.114c-9.595,4.647-19.174,9.331-28.784,13.945
		c-4.539,2.179-9.123,4.262-13.72,6.312c-0.989,0.441-1.365,1.053-1.46,2.068c-0.467,4.985-0.974,9.969-1.483,14.952
		c-0.033,0.326-0.209,0.638-0.309,0.925c-2.365,0.748-20.188,1.003-27.055,0.366c-0.461-3.375-0.938-6.833-1.407-10.291
		c-0.441-3.25-0.875-6.502-1.325-9.833c-7.253-2.912-14.323-5.752-21.275-8.544c-0.223-1.546,0.849-2.054,1.517-2.763
		c4.158-4.421,8.388-8.774,12.512-13.226c4.195-4.525,8.299-9.135,12.437-13.714c1.34-1.482,2.92-2.284,4.923-2.826
		c4.858-1.316,9.701-2.317,14.747-2.728c4.727-0.385,9.36-1.834,14.088-2.309c3.892-0.391,7.652-1.054,11.359-2.271
		c4.148-1.358,8.088-3.12,11.752-5.495c4.813-3.12,8.255-7.538,11.362-12.226c5.021-7.576,8.912-15.723,11.494-24.437
		c1.095-3.693,1.784-7.519,2.473-11.318c0.584-3.233,0.925-6.512,1.313-9.779c0.079-0.662-0.075-1.36-0.178-2.034
		c-0.117-0.782-0.393-1.551-0.432-2.335c-0.414-8.143-2.794-15.636-6.944-22.672c-2.464-4.177-5.601-7.745-8.59-11.5
		c-2.6-3.266-5.831-5.778-8.692-8.688c-2.673-2.721-6.162-4.689-9.447-6.743c-3.968-2.479-7.937-4.968-12.396-6.586
		c-5.697-2.064-11.31-4.294-17.553-3.98c-3.666,0.185-7.345,0.077-11.014,0.223c-1.809,0.072-3.639,0.274-5.402,0.67
		c-4.887,1.096-9.759,2.262-14.607,3.514c-5.435,1.402-10.643,3.512-15.707,5.863c-6.327,2.939-12.326,6.519-17.222,11.609
		c-3.593,3.736-6.332,7.942-7.885,13.045c-1.773,5.821-2.782,11.659-3.394,17.715c-0.458,4.527,0.19,9.131-1.042,13.607
		c-0.382,1.389,0.023,2.977-0.09,4.461c-0.189,2.492-0.355,5.004-0.822,7.45c-0.313,1.645-0.84,3.374-2.745,4.092
		c-0.405,0.151-0.732,0.542-1.065,0.854c-4.434,4.145-8.854,8.304-13.294,12.442c-3.687,3.436-7.398,6.848-11.3,10.458
		c-3.738-6.721-7.476-13.44-11.309-20.329c-5.96,0-11.774,0-17.765,0c0-12.897,0-25.485,0-38.406
		c5.918-0.167,11.856,0.033,18.057-0.123c2.333-4.856,4.606-9.712,6.989-14.514c1.778-3.582,3.732-7.076,5.544-10.642
		c2.541-5.001,5.034-10.027,7.526-15.053c1.562-3.148,1.341-3.673-1.217-5.8c-3.599-2.996-7.082-6.133-10.604-9.222
		C102.46,117.492,101.125,116.261,99.657,114.936z"/>
	<path fill-rule="evenodd" clip-rule="evenodd" fill="#1E92CD" d="M194.12,141.691c7.761,1.411,15.226,2.769,22.662,4.121
		c0.259,1.53-0.536,2.23-1.206,2.963c-3.163,3.462-6.409,6.852-9.495,10.384c-3.147,3.605-6.086,7.394-9.218,11.012
		c-3.146,3.632-6.419,7.155-9.856,10.969c1.575,1.577,3.149,3.19,4.765,4.758c1.561,1.513,3.157,2.993,4.759,4.463
		c0.417,0.383,0.957,0.632,1.367,1.021c4.574,4.332,9.109,8.703,13.704,13.011c3.589,3.362,7.247,6.651,11.062,10.146
		c0.634-0.523,1.35-1.045,1.986-1.651c6.47-6.167,12.882-12.396,19.403-18.508c4.332-4.062,8.812-7.964,13.522-12.203
		c0.089,0.952,0.392,1.734,0.174,2.325c-0.784,2.123-0.479,4.299-0.591,6.46c-0.189,3.645-0.477,7.286-0.676,10.929
		c-0.1,1.834-0.021,3.677-0.156,5.506c-0.157,2.153-0.427,4.302-0.723,6.441c-0.057,0.407-0.407,0.811-0.705,1.143
		c-2.138,2.381-4.309,4.73-6.444,7.116c-3.964,4.428-7.812,8.967-11.898,13.278c-3.239,3.417-6.131,7.08-8.761,10.96
		c-0.784,1.157-1.802,1.537-3.096,1.84c-3.273,0.769-6.595,0.6-9.897,0.771c-1.031,0.053-2.068-0.019-3.101,0.013
		c-6.973,0.21-13.946,0.403-20.915,0.691c-0.829,0.034-1.703,0.506-2.433,0.969c-0.663,0.421-1.157,1.105-1.726,1.674
		c-24.444,24.443-48.836,48.938-73.373,73.288c-5.146,5.108-11.207,9.032-18.547,10.366c-1.631,0.297-3.384,0.249-5.039,0.035
		c-6.119-0.791-10.907-4.458-15.881-7.654c-5.103-3.28-8.434-7.979-10.189-13.746c-2.05-6.734-0.403-15.321,6.212-19.485
		c0.669-0.421,1.248-1.006,1.817-1.565c4.583-4.511,9.125-9.061,13.735-13.543c5.342-5.193,10.727-10.345,16.118-15.485
		c3.396-3.237,6.85-6.414,10.263-9.634c4.165-3.929,8.306-7.884,12.474-11.809c3.249-3.06,6.562-6.052,9.776-9.146
		c3.958-3.81,7.812-7.726,11.77-11.536c2.14-2.061,4.345-4.06,6.622-5.965c1.647-1.378,2.168-2.974,2.151-5.112
		c-0.096-12.518,0.026-25.038-0.109-37.553c-0.026-2.477,0.753-4.149,2.7-5.489c2.256-1.553,4.459-3.181,6.698-4.757
		c4.294-3.02,8.635-5.976,12.887-9.053c4.806-3.477,9.532-7.062,14.302-10.59C192.026,143.112,193.076,142.417,194.12,141.691z
		 M79.257,308.334c-0.615,5.492,3.462,9.668,9.972,10.147c4.904,0.36,10.034-4.979,10.139-10.134
		c0.101-4.938-5.083-10.583-9.942-10.427C83.44,298.113,78.764,302.304,79.257,308.334z"/>
</g>
</svg>
