<?xml version="1.0" encoding="utf-8"?>
<!-- Generator: Adobe Illustrator 16.0.0, SVG Export Plug-In . SVG Version: 6.00 Build 0)  -->
<!DOCTYPE svg PUBLIC "-//W3C//DTD SVG 1.1//EN" "http://www.w3.org/Graphics/SVG/1.1/DTD/svg11.dtd">
<svg version="1.1" id="Layer_1" xmlns="http://www.w3.org/2000/svg" xmlns:xlink="http://www.w3.org/1999/xlink" x="0px" y="0px"
	 width="400px" height="400px" viewBox="0 0 400 400" enable-background="new 0 0 400 400" xml:space="preserve">
<g id="jSUeC4.tif">
	<g>
		<path fill-rule="evenodd" clip-rule="evenodd" fill="#1E92CD" d="M331.731,81.241c-0.322,0.434-0.603,0.908-0.974,1.295
			c-29.039,30.259-58.088,60.509-87.118,90.775c-0.682,0.711-1.349,1.033-2.361,1.032c-55.479-0.026-110.959-0.023-166.438-0.023
			c-0.409,0-0.818,0-1.598,0c0.577-0.334,0.844-0.516,1.132-0.65c47.836-22.322,95.674-44.641,143.512-66.958
			c17.67-8.244,35.342-16.483,53.01-24.731c0.444-0.207,0.852-0.491,1.276-0.739C292.025,81.241,311.879,81.241,331.731,81.241z"/>
		<path fill-rule="evenodd" clip-rule="evenodd" fill="#1E92CD" d="M334.477,92.22c-3.672,4.312-7.36,8.608-11.011,12.939
			c-25.134,29.818-50.258,59.646-75.387,89.469c-0.231,0.275-0.477,0.539-0.882,0.996c-0.063-0.532-0.136-0.854-0.137-1.175
			c-0.006-6.355-0.027-12.712,0.032-19.068c0.006-0.639,0.36-1.414,0.807-1.89c27.569-29.372,55.166-58.721,82.764-88.066
			c1.247-1.326,2.542-2.607,3.813-3.909C334.477,85.084,334.477,88.651,334.477,92.22z"/>
		<path fill-rule="evenodd" clip-rule="evenodd" fill="#1E92CD" d="M334.477,136.409c-1.369,2.78-2.764,5.549-4.105,8.343
			c-26.349,54.883-52.69,109.77-79.035,164.654c-0.209,0.435-0.438,0.858-0.831,1.625c-0.054-0.755-0.104-1.136-0.104-1.517
			c-0.005-4.803-0.027-9.606,0.021-14.408c0.007-0.739,0.206-1.547,0.546-2.204c27.578-53.262,55.178-106.512,82.781-159.759
			c0.204-0.396,0.482-0.752,0.727-1.126C334.477,133.481,334.477,134.945,334.477,136.409z"/>
		<path fill-rule="evenodd" clip-rule="evenodd" fill="#1E92CD" d="M165.495,284.771c5.602,0.972,11.042,1.92,16.483,2.858
			c14.002,2.413,28.006,4.819,42.008,7.236c6.572,1.134,13.141,2.294,19.713,3.422c0.638,0.109,1.104,0.181,1.099,1.032
			c-0.035,6.357-0.028,12.715-0.039,19.074c0,0.087-0.052,0.174-0.111,0.364c-59.636,0-119.302,0-179.061,0
			c0-6.947,0-13.879,0-21.021c23.477-4.182,47.02-8.375,70.688-12.591c0-0.554,0-1.047,0-1.541c0-23.056-0.014-46.11,0.034-69.165
			c0.003-1.299-0.438-1.687-1.61-1.917c-16.315-3.207-32.622-6.456-48.931-9.696c-6.451-1.282-12.904-2.554-19.347-3.877
			c-0.353-0.072-0.884-0.568-0.885-0.87c-0.031-7.088,0-14.176,0.023-21.265c0-0.035,0.047-0.07,0.123-0.181
			c59.616,0,119.285,0,179.004,0c0.037,0.389,0.092,0.7,0.093,1.01c0.005,6.313-0.009,12.626,0.02,18.938
			c0.004,0.837-0.224,1.179-1.101,1.333c-19.123,3.364-38.239,6.763-57.355,10.158c-6.613,1.175-13.219,2.387-19.84,3.506
			c-1.095,0.186-1.013,0.8-1.012,1.545c0.004,11.3,0.003,22.598,0.003,33.897c0,12.029,0,24.061,0,36.091
			C165.495,283.649,165.495,284.187,165.495,284.771z"/>
		<path fill-rule="evenodd" clip-rule="evenodd" fill="#1E92CD" d="M331.789,127.912c-0.275,0.537-0.49,0.98-0.727,1.412
			c-29.244,53.467-58.493,106.931-87.71,160.412c-0.587,1.073-1.188,1.307-2.356,1.125c-13.634-2.117-27.276-4.179-40.918-6.25
			c-9.124-1.386-18.249-2.765-27.373-4.152c-0.213-0.032-0.416-0.134-0.774-0.253c2.168-2.624,4.255-5.154,6.349-7.68
			c19.021-22.959,38.048-45.913,57.052-68.889c0.692-0.837,1.438-1.248,2.516-1.381c3.31-0.41,6.612-0.886,9.9-1.445
			c0.587-0.1,1.2-0.62,1.607-1.108c10.565-12.685,21.104-25.392,31.647-38.093c10.136-12.209,20.281-24.41,30.393-36.64
			c0.645-0.779,1.212-0.957,2.207-0.75c5.679,1.182,11.377,2.269,17.067,3.392C331.014,127.681,331.351,127.794,331.789,127.912z"/>
		<path fill-rule="evenodd" clip-rule="evenodd" fill="#1E92CD" d="M170.14,213.603c20.504-3.062,40.902-6.11,61.731-9.224
			c-20.703,24.047-41.127,47.768-61.731,71.698C170.14,255.119,170.14,234.414,170.14,213.603z"/>
		<path fill-rule="evenodd" clip-rule="evenodd" fill="#1E92CD" d="M132.452,242.99c0,12.395,0,24.453,0,36.61
			c-18.833,3.788-37.614,7.566-56.397,11.345c-0.044-0.08-0.089-0.157-0.133-0.237C94.693,274.863,113.465,259.018,132.452,242.99z"
			/>
	</g>
</g>
</svg>
