<?xml version="1.0" encoding="utf-8"?>
<!-- Generator: Adobe Illustrator 16.0.0, SVG Export Plug-In . SVG Version: 6.00 Build 0)  -->
<!DOCTYPE svg PUBLIC "-//W3C//DTD SVG 1.1//EN" "http://www.w3.org/Graphics/SVG/1.1/DTD/svg11.dtd">
<svg version="1.1" id="Layer_1" xmlns="http://www.w3.org/2000/svg" xmlns:xlink="http://www.w3.org/1999/xlink" x="0px" y="0px"
	 width="400px" height="400px" viewBox="0 0 400 400" enable-background="new 0 0 400 400" xml:space="preserve">
<path fill="#1E92CD" d="M341.272,117.037c-0.419-1.912-1.485-3.429-2.844-4.786c-7.534-7.526-15.061-15.058-22.591-22.588
	c-9.329-9.329-18.662-18.654-27.983-27.99c-1.427-1.429-3.01-2.555-5.021-2.982c-0.076-0.016-0.135-0.118-0.2-0.18h-3.396
	c-0.066,0.062-0.125,0.163-0.201,0.179c-2.014,0.426-3.604,1.551-5.028,2.981c-5.927,5.942-11.865,11.873-17.8,17.807
	c-25.271,25.272-50.541,50.545-75.812,75.816c-39.041,39.042-78.082,78.083-117.122,117.125c-0.634,0.634-1.275,1.258-1.902,1.898
	c-1.274,1.302-2.261,2.771-2.644,4.589c-0.026,0.122-0.145,0.224-0.221,0.335v3.396c0.062,0.065,0.163,0.124,0.18,0.2
	c0.428,2.014,1.556,3.599,2.986,5.025c7.211,7.193,14.407,14.4,21.609,21.603c9.603,9.603,19.211,19.199,28.804,28.812
	c1.167,1.171,2.438,2.141,3.947,2.783c1.918,0.612,3.947,0.516,5.938,0.055c1.564-0.639,2.877-1.63,4.077-2.83
	c35.175-35.187,70.356-70.368,105.537-105.549c35.581-35.582,71.163-71.163,106.749-106.74c1.428-1.427,2.559-3.012,2.979-5.03
	c0.016-0.076,0.118-0.133,0.181-0.199v-3.396C341.418,117.26,341.299,117.159,341.272,117.037z M85.326,291.581
	c-1.342,0.674-2.652,0.516-3.862-0.357c-0.341-0.246-0.63-0.566-0.929-0.865c-4.234-4.229-8.465-8.46-12.695-12.69
	c-0.267-0.267-0.547-0.522-0.787-0.812c-1.305-1.565-1.198-3.735,0.24-5.108c1.437-1.371,3.626-1.393,5.105-0.007
	c0.963,0.902,1.874,1.859,2.806,2.792c3.632,3.632,7.255,7.271,10.898,10.891c0.81,0.805,1.319,1.704,1.288,2.874
	C87.332,289.786,86.657,290.911,85.326,291.581z M91.688,277.065c-0.643,0.253-1.211,0.098-1.734-0.258
	c-0.309-0.209-0.564-0.497-0.831-0.763c-2.365-2.363-4.73-4.727-7.091-7.097c-0.297-0.299-0.617-0.6-0.825-0.958
	c-0.748-1.287,0.221-2.911,1.759-2.911c0.736-0.031,1.26,0.432,1.769,0.943c2.428,2.434,4.863,4.86,7.293,7.294
	c0.232,0.232,0.475,0.466,0.654,0.738C93.429,275.181,92.95,276.571,91.688,277.065z M102.261,266.673
	c-0.664,0.372-1.36,0.37-2.007-0.036c-0.313-0.197-0.579-0.479-0.844-0.743c-2.333-2.327-4.662-4.657-6.985-6.993
	c-0.33-0.332-0.671-0.671-0.922-1.062c-0.54-0.844-0.352-1.896,0.396-2.538c0.662-0.568,1.751-0.59,2.48-0.037
	c0.187,0.142,0.349,0.316,0.515,0.482c2.497,2.495,4.989,4.995,7.49,7.485c0.479,0.478,0.91,0.962,0.861,1.648
	C103.276,265.714,102.928,266.299,102.261,266.673z M113.451,254.68c0.023,0.889-0.346,1.483-1.041,1.795
	c-0.666,0.3-1.376,0.3-2.012-0.153c-0.189-0.136-0.355-0.309-0.521-0.475c-2.532-2.53-5.06-5.066-7.6-7.59
	c-0.486-0.483-0.843-0.99-0.821-1.719c0.022-0.786,0.351-1.39,1.052-1.7c0.668-0.297,1.377-0.303,2.012,0.157
	c0.189,0.138,0.357,0.306,0.524,0.473c2.566,2.562,5.128,5.13,7.698,7.689C113.198,253.609,113.522,254.103,113.451,254.68z
	 M121.649,246.442c-0.662,0.069-1.137-0.383-1.611-0.86c-1.793-1.802-3.593-3.596-5.39-5.395c-0.831-0.832-1.706-1.627-2.48-2.511
	c-1.068-1.219-0.44-2.933,1.14-3.262c0.716-0.148,1.29,0.116,1.787,0.6c0.573,0.558,1.137,1.126,1.702,1.691
	c1.931,1.931,3.863,3.858,5.786,5.797c0.328,0.332,0.676,0.675,0.897,1.077C124.213,244.909,123.253,246.453,121.649,246.442z
	 M138.116,238.827c-0.693,1.321-1.834,1.974-3.536,1.966c-0.642,0.04-1.381-0.224-2.02-0.76c-0.36-0.303-0.711-0.617-1.044-0.949
	c-4.165-4.161-8.329-8.324-12.486-12.494c-0.397-0.398-0.795-0.812-1.112-1.273c-0.979-1.433-0.761-3.422,0.473-4.668
	c1.25-1.262,3.179-1.461,4.655-0.445c0.423,0.292,0.8,0.658,1.165,1.023c4.234,4.226,8.464,8.457,12.69,12.689
	c0.299,0.299,0.599,0.604,0.854,0.938C138.706,236.098,138.838,237.449,138.116,238.827z M143.03,225.885
	c-0.663,0.313-1.369,0.319-2.014-0.108c-0.192-0.129-0.358-0.303-0.523-0.469c-2.562-2.558-5.118-5.121-7.687-7.672
	c-0.451-0.449-0.773-0.923-0.774-1.593c-0.003-1.474,1.377-2.43,2.727-1.822c0.413,0.186,0.777,0.522,1.106,0.849
	c2.403,2.384,4.787,4.787,7.19,7.172c0.551,0.545,1.004,1.121,1.035,2.012C144.025,224.919,143.722,225.559,143.03,225.885z
	 M152.281,215.87c-0.584,0.051-1.075-0.27-1.527-0.727c-1.391-1.406-2.797-2.799-4.195-4.197c-1.199-1.199-2.391-2.405-3.6-3.595
	c-0.461-0.453-0.733-0.956-0.713-1.621c0.042-1.393,1.394-2.316,2.673-1.77c0.375,0.16,0.718,0.444,1.011,0.736
	c2.509,2.488,5.006,4.986,7.492,7.495c0.292,0.295,0.577,0.638,0.736,1.014C154.699,214.479,153.753,215.855,152.281,215.87z
	 M163.942,205.1c-0.805,0.803-1.962,0.798-2.893-0.118c-2.653-2.611-5.273-5.255-7.901-7.891c-0.656-0.657-0.903-1.419-0.513-2.315
	c0.334-0.769,0.952-1.131,1.995-1.273c0.312,0.176,0.874,0.358,1.252,0.729c2.691,2.639,5.361,5.302,8.003,7.99
	C164.819,203.169,164.793,204.25,163.942,205.1z M171.912,195.191c-0.321-0.178-0.599-0.451-0.862-0.715
	c-2.436-2.423-4.862-4.854-7.291-7.282c-0.2-0.2-0.408-0.393-0.587-0.61c-0.71-0.865-0.664-1.898,0.108-2.663
	c0.767-0.759,1.816-0.799,2.66-0.069c0.427,0.369,0.812,0.787,1.211,1.186c2.229,2.231,4.453,4.468,6.691,6.69
	c0.517,0.513,0.944,1.049,0.944,1.71C174.725,194.964,173.153,195.877,171.912,195.191z M187.586,189.317
	c-1.403,0.662-2.748,0.474-3.975-0.474c-0.259-0.201-0.477-0.455-0.709-0.688c-4.268-4.268-8.535-8.535-12.802-12.804
	c-0.267-0.267-0.544-0.525-0.787-0.812c-1.27-1.502-1.188-3.605,0.184-5.002c1.358-1.382,3.503-1.496,4.999-0.254
	c0.289,0.24,0.548,0.519,0.814,0.785c4.303,4.3,8.591,8.612,12.914,12.891c0.885,0.875,1.429,1.85,1.493,3.065
	C189.575,187.507,188.946,188.675,187.586,189.317z M193.871,174.932c-0.614,0.262-1.205,0.209-1.75-0.145
	c-0.312-0.202-0.59-0.468-0.854-0.732c-2.4-2.395-4.799-4.792-7.189-7.197c-0.296-0.298-0.606-0.608-0.805-0.971
	c-0.708-1.293,0.306-2.943,1.87-2.914c0.552,0.023,1.038,0.366,1.483,0.814c1.593,1.604,3.194,3.199,4.792,4.798
	c1.033,1.032,2.098,2.035,3.086,3.107C195.574,172.853,195.251,174.344,193.871,174.932z M204.303,164.615
	c-0.685,0.388-1.361,0.331-1.998-0.094c-0.271-0.18-0.498-0.429-0.731-0.661c-2.431-2.43-4.86-4.861-7.288-7.293
	c-0.199-0.2-0.413-0.391-0.583-0.615c-0.648-0.858-0.6-1.827,0.111-2.565c0.709-0.736,1.7-0.844,2.558-0.246
	c0.306,0.214,0.582,0.478,0.847,0.743c2.335,2.327,4.665,4.656,6.99,6.993c0.297,0.298,0.596,0.611,0.82,0.964
	c0.192,0.305,0.28,0.677,0.358,0.875C205.305,163.65,204.971,164.236,204.303,164.615z M214.568,154.368
	c-0.667,0.402-1.355,0.394-1.999-0.04c-0.309-0.208-0.574-0.485-0.84-0.75c-2.403-2.396-4.802-4.795-7.199-7.196
	c-0.232-0.233-0.479-0.46-0.667-0.728c-0.614-0.874-0.517-1.814,0.236-2.558c0.662-0.653,1.65-0.755,2.461-0.222
	c0.273,0.179,0.508,0.42,0.739,0.651c2.436,2.43,4.865,4.866,7.302,7.294c0.51,0.508,0.985,1.022,0.968,1.792
	C215.601,153.416,215.216,153.977,214.568,154.368z M225.777,142.336c0.003,1.585-1.551,2.542-2.885,1.831
	c-0.284-0.152-0.526-0.395-0.758-0.625c-2.533-2.526-5.063-5.056-7.59-7.589c-0.198-0.2-0.402-0.406-0.544-0.644
	c-0.509-0.851-0.314-1.91,0.441-2.548c0.671-0.564,1.754-0.581,2.48-0.023c0.186,0.142,0.346,0.318,0.513,0.484
	c2.497,2.496,4.991,4.995,7.492,7.486C225.406,141.186,225.842,141.669,225.777,142.336z M240.797,134.544
	c-0.016,1.771-0.679,2.906-2.003,3.59c-1.325,0.685-2.641,0.582-3.855-0.312c-0.34-0.25-0.65-0.544-0.949-0.842
	c-4.267-4.26-8.531-8.523-12.791-12.79c-0.331-0.332-0.662-0.675-0.935-1.055c-1.086-1.516-0.909-3.472,0.408-4.766
	c1.322-1.302,3.441-1.428,4.896-0.271c0.404,0.321,0.773,0.688,1.14,1.053c4.2,4.194,8.396,8.392,12.593,12.588
	C240.152,132.593,240.875,133.506,240.797,134.544z M245.144,123.796c-0.741,0.435-1.45,0.309-2.122-0.133
	c-0.271-0.179-0.488-0.439-0.722-0.672c-2.399-2.396-4.8-4.792-7.192-7.196c-0.297-0.297-0.614-0.606-0.805-0.971
	c-0.699-1.344,0.277-2.871,1.877-2.85c0.662-0.062,1.134,0.399,1.606,0.875c1.829,1.835,3.663,3.665,5.495,5.498
	c0.766,0.766,1.57,1.497,2.287,2.307C246.514,121.723,246.291,123.125,245.144,123.796z M255.513,113.466
	c-0.687,0.426-1.434,0.418-2.141,0.027c-0.28-0.156-0.523-0.395-0.755-0.625c-2.463-2.454-4.924-4.909-7.373-7.376
	c-0.292-0.295-0.582-0.633-0.749-1.006c-0.601-1.345,0.349-2.737,1.897-2.719c0.665-0.067,1.137,0.389,1.609,0.864
	c2.056,2.063,4.116,4.122,6.176,6.181c0.531,0.532,1.096,1.036,1.582,1.606c0.26,0.305,0.476,0.706,0.557,1.096
	C256.484,112.313,256.228,113.023,255.513,113.466z M265.539,103.362c-0.667,0.301-1.374,0.313-2.009-0.139
	c-0.229-0.163-0.424-0.37-0.623-0.57c-2.493-2.488-4.99-4.974-7.469-7.478c-0.32-0.325-0.635-0.715-0.785-1.135
	c-0.293-0.816,0.017-1.65,0.664-2.14c0.581-0.438,1.594-0.488,2.261-0.073c0.274,0.171,0.52,0.401,0.751,0.631
	c2.429,2.422,4.845,4.855,7.279,7.27c0.553,0.548,0.983,1.134,1.021,1.94C266.549,102.413,266.236,103.047,265.539,103.362z
	 M274.89,93.334c-0.654,0.053-1.184-0.304-1.667-0.791c-1.258-1.271-2.527-2.531-3.793-3.795c-1.166-1.165-2.334-2.327-3.496-3.495
	c-0.265-0.267-0.548-0.525-0.764-0.829c-0.602-0.847-0.515-1.886,0.18-2.574c0.767-0.758,1.793-0.808,2.68-0.119
	c0.184,0.143,0.337,0.327,0.504,0.493c2.431,2.429,4.866,4.854,7.287,7.293c0.326,0.329,0.664,0.69,0.853,1.102
	C277.248,91.875,276.326,93.292,274.89,93.334z M289.728,87.08c-1.421,0.614-2.759,0.4-3.942-0.627
	c-0.106-0.093-0.204-0.194-0.305-0.294c-4.498-4.497-8.992-8.999-13.499-13.487c-0.771-0.767-1.248-1.629-1.252-2.74
	c-0.007-1.512,0.66-2.631,1.967-3.342c1.323-0.719,2.632-0.582,3.87,0.248c0.231,0.156,0.438,0.356,0.638,0.556
	c4.498,4.496,8.992,8.997,13.495,13.49c0.765,0.763,1.258,1.636,1.274,3.001C291.914,85.225,291.218,86.436,289.728,87.08z
	 M301.202,105.843c-3.944,0.01-7.017-3.333-7.047-6.963c-0.032-3.773,3.275-7.036,6.97-7.054c3.822-0.019,7.187,3.332,7.011,6.976
	C308.335,102.41,305.11,105.833,301.202,105.843z"/>
</svg>
