<?xml version="1.0" encoding="utf-8"?>
<!-- Generator: Adobe Illustrator 16.0.0, SVG Export Plug-In . SVG Version: 6.00 Build 0)  -->
<!DOCTYPE svg PUBLIC "-//W3C//DTD SVG 1.1//EN" "http://www.w3.org/Graphics/SVG/1.1/DTD/svg11.dtd">
<svg version="1.1" id="Layer_1" xmlns="http://www.w3.org/2000/svg" xmlns:xlink="http://www.w3.org/1999/xlink" x="0px" y="0px"
	 width="400px" height="400px" viewBox="0 0 400 400" enable-background="new 0 0 400 400" xml:space="preserve">
<g id="MEFKWq.tif">
	<g>
		<path fill-rule="evenodd" clip-rule="evenodd" fill="#1E92CD" d="M96.927,84.863c0.968,0.199,1.948,0.354,2.904,0.602
			c9.279,2.405,15.007,8.322,17.325,17.586c7.975,31.888,15.945,63.776,23.916,95.666c1.936,7.74,3.889,15.477,5.775,23.229
			c0.222,0.911,0.594,1.101,1.456,1.1c24.943-0.021,49.888-0.018,74.831-0.018c22.027,0,44.055,0,66.082,0c0.458,0,0.915,0,1.477,0
			c0.724-2.681,1.444-5.326,2.153-7.975c6.968-26.061,13.932-52.12,20.899-78.181c1.483-5.545,2.987-11.085,4.438-16.638
			c0.173-0.656,0.431-0.845,1.082-0.844c7.56,0.021,15.12,0.015,22.68,0.018c0.113,0,0.226,0.027,0.506,0.063
			c-0.203,0.815-0.385,1.608-0.599,2.393c-6.491,23.852-12.986,47.702-19.481,71.553c-3.228,11.852-6.37,23.727-9.711,35.547
			c-2.598,9.196-8.681,14.838-18.093,16.742c-1.379,0.278-2.82,0.315-4.233,0.333c-3.604,0.044-7.208,0.015-10.818,0.089
			c3.313,0.418,6.552,1.119,9.609,2.465c12.49,5.495,19.997,14.938,21.455,28.549c1.995,18.602-11.379,35.253-29.828,37.714
			c-0.562,0.074-1.118,0.187-1.677,0.28c-1.843,0-3.686,0-5.527,0c-0.559-0.094-1.115-0.206-1.677-0.28
			c-18.448-2.462-31.794-19.122-29.842-37.702c1.354-12.903,8.305-22.112,19.868-27.866c3.524-1.754,7.304-2.687,11.205-3.182
			c-32.405,0-64.811,0-97.216,0c4.607,0.566,8.947,1.914,13.059,4.082c12.499,6.589,19.918,20.92,17.996,34.874
			c-1.974,14.325-12.491,25.853-26.656,29.178c-1.594,0.373-3.222,0.602-4.834,0.896c-1.843,0-3.685,0-5.527,0
			c-0.56-0.094-1.116-0.206-1.678-0.28c-18.447-2.461-31.793-19.124-29.842-37.699c1.356-12.904,8.304-22.113,19.866-27.867
			c3.524-1.754,7.302-2.689,11.212-3.159c-0.453-0.076-0.899-0.076-1.345-0.076c-7.098-0.002-14.197,0.031-21.293-0.012
			c-10.536-0.066-19.531-7.26-22.061-17.477c-3.531-14.265-7.125-28.513-10.688-42.769c-5.722-22.885-11.442-45.77-17.163-68.654
			c-0.768-3.068-1.54-6.136-2.323-9.253c-0.491,0-0.91,0-1.329,0c-7.98,0-15.961-0.001-23.941,0c-3.666,0-6.694-1.394-9.104-4.151
			c-1.45-1.659-2.105-3.687-2.684-5.75c0-1.075,0-2.15,0-3.225c0.082-0.244,0.182-0.484,0.241-0.734
			c0.937-3.882,3.196-6.675,6.875-8.259c0.893-0.385,1.855-0.61,2.786-0.908C77.276,84.863,87.102,84.863,96.927,84.863z
			 M184.201,280.703c0.022-6.458-4.97-11.582-11.322-11.621c-6.531-0.04-11.673,4.942-11.707,11.344
			c-0.034,6.525,4.959,11.655,11.374,11.684C179.059,292.14,184.178,287.128,184.201,280.703z M276.297,269.082
			c-6.462,0.002-11.507,5.069-11.5,11.55c0.006,6.403,5.065,11.469,11.464,11.478c6.481,0.01,11.561-5.04,11.563-11.498
			C287.828,274.143,282.765,269.079,276.297,269.082z"/>
		<path fill-rule="evenodd" clip-rule="evenodd" fill="#1E92CD" d="M230.256,84.863c0,11.466,0,22.931,0,34.521
			c11.525,0,22.975,0,34.481,0c0,7.707,0,15.289,0,22.997c-11.438,0-22.885,0-34.456,0c0,11.571,0,23.019,0,34.527
			c-7.707,0-15.29,0-22.997,0c0-11.428,0-22.875,0-34.446c-11.571,0-23.019,0-34.531,0c0-7.706,0-15.289,0-22.997
			c11.418,0,22.865,0,34.475,0c0-11.616,0-23.109,0-34.603C214.903,84.863,222.579,84.863,230.256,84.863z"/>
		<path fill-rule="evenodd" clip-rule="evenodd" fill="#1E92CD" d="M67.452,84.863c-0.931,0.298-1.894,0.523-2.786,0.908
			c-3.678,1.584-5.938,4.377-6.875,8.259c-0.06,0.25-0.16,0.49-0.241,0.734c0-3.301,0-6.601,0-9.901
			C60.851,84.863,64.151,84.863,67.452,84.863z"/>
	</g>
</g>
</svg>
