<?xml version="1.0" encoding="utf-8"?>
<!-- Generator: Adobe Illustrator 16.0.0, SVG Export Plug-In . SVG Version: 6.00 Build 0)  -->
<!DOCTYPE svg PUBLIC "-//W3C//DTD SVG 1.1//EN" "http://www.w3.org/Graphics/SVG/1.1/DTD/svg11.dtd">
<svg version="1.1" id="Layer_1" xmlns="http://www.w3.org/2000/svg" xmlns:xlink="http://www.w3.org/1999/xlink" x="0px" y="0px"
	 width="400px" height="400px" viewBox="0 0 400 400" enable-background="new 0 0 400 400" xml:space="preserve">
<g id="UgVe5Y.tif">
	<g>
		<path fill="#0A618A" d="M195.28,65.379c3.681,0,7.361,0,11.042,0c0.34,0.067,0.677,0.16,1.02,0.198
			c4.959,0.542,9.954,0.855,14.87,1.653c18.349,2.979,35.329,9.62,50.892,19.759c18.194,11.852,32.776,27.185,43.476,46.11
			c9.161,16.205,14.739,33.593,16.76,52.108c0.299,2.731,0.508,5.474,0.759,8.21c0,3.768,0,7.537,0,11.304
			c-0.074,0.425-0.193,0.846-0.215,1.271c-0.381,7.584-1.393,15.086-3.184,22.463c-8.88,36.592-29.314,64.927-61.309,84.711
			c-17.897,11.067-37.565,17.104-58.554,18.876c-14.366,1.213-28.515,0.029-42.479-3.489c-9.838-2.478-19.264-6.076-28.323-10.629
			c-2.345-1.178-4.672-1.419-7.234-0.735c-13.564,3.623-27.15,7.167-40.729,10.738c-8.451,2.224-16.903,4.448-25.354,6.673
			c-0.333-0.068-0.95,0.285-0.789-0.526c0.487-1.62,1.012-3.231,1.457-4.863c5.496-20.17,10.982-40.342,16.466-60.514
			c0.552-2.031,0.34-3.981-0.681-5.843c-0.695-1.266-1.378-2.538-2.021-3.83c-7.658-15.415-12.343-31.659-13.723-48.845
			c-1.167-14.524-0.207-28.889,3.345-43.027c6.07-24.167,17.938-45.092,35.576-62.701c13.807-13.783,29.9-24.039,48.2-30.794
			c10.595-3.911,21.491-6.578,32.772-7.547C189.974,65.882,192.627,65.625,195.28,65.379z M97.979,302.915
			c0.972-0.19,1.781-0.303,2.566-0.51c11.844-3.115,23.692-6.211,35.52-9.389c2.535-0.681,4.808-0.42,7.049,0.905
			c13.769,8.144,28.495,13.512,44.456,15.311c13.376,1.506,26.619,0.605,39.644-2.624c24.247-6.008,44.385-18.757,59.708-38.449
			c23.054-29.622,30.339-62.846,20.252-99.206c-8.241-29.705-26.319-52.023-53.187-67.119c-15.75-8.852-32.775-13.344-50.812-13.755
			c-12.562-0.287-24.914,1.386-36.863,5.383c-31.037,10.384-53.37,30.592-67.018,60.249c-9.755,21.197-12.247,43.405-7.829,66.317
			c2.558,13.268,7.17,25.773,14.787,37.04c2.377,3.516,2.92,7.121,1.61,11.21c-1.988,6.2-3.739,12.479-5.523,18.744
			C100.855,292.228,99.47,297.46,97.979,302.915z"/>
		<path fill-rule="evenodd" clip-rule="evenodd" fill="#0A618A" d="M157.147,137.213c0.962,0.061,1.923,0.151,2.886,0.175
			c2.96,0.074,5.106,1.389,6.293,4.13c1.46,3.37,2.897,6.75,4.319,10.137c2.201,5.241,4.303,10.527,6.6,15.726
			c1.378,3.118,1.238,5.853-0.945,8.56c-2.611,3.236-5.068,6.596-7.593,9.902c-2.019,2.643-2.101,3.854-0.434,6.68
			c8.529,14.457,19.906,26.045,34.674,34.138c3.636,1.993,7.454,3.668,11.262,5.324c2.889,1.257,4.736,0.679,6.72-1.759
			c3.371-4.146,6.729-8.304,10.081-12.464c2.433-3.016,3.752-3.388,7.229-1.733c8.926,4.247,17.817,8.565,26.747,12.805
			c2.185,1.037,3.057,2.762,3.094,5.038c0.175,11.278-4.64,19.562-14.723,24.793c-8.44,4.38-17.301,5.477-26.516,3.504
			c-16.43-3.519-31.22-10.677-44.737-20.564c-10.573-7.734-19.716-16.943-27.871-27.156c-4.784-5.991-9.348-12.139-13.291-18.732
			c-4.518-7.553-7.315-15.657-8.23-24.421c-1.114-10.681,2.778-19.619,9.519-27.571c2.196-2.59,4.532-5.105,8.016-5.863
			c2.249-0.489,4.578-0.603,6.87-0.885C157.129,137.055,157.138,137.134,157.147,137.213z"/>
	</g>
</g>
</svg>
