<?xml version="1.0" encoding="utf-8"?>
<!-- Generator: Adobe Illustrator 16.0.0, SVG Export Plug-In . SVG Version: 6.00 Build 0)  -->
<!DOCTYPE svg PUBLIC "-//W3C//DTD SVG 1.1//EN" "http://www.w3.org/Graphics/SVG/1.1/DTD/svg11.dtd">
<svg version="1.1" id="Layer_1" xmlns="http://www.w3.org/2000/svg" xmlns:xlink="http://www.w3.org/1999/xlink" x="0px" y="0px"
	 width="400px" height="400px" viewBox="0 0 400 400" enable-background="new 0 0 400 400" xml:space="preserve">
<g id="Y3WtzM.tif">
	<g>
		<path fill-rule="evenodd" clip-rule="evenodd" fill="#0A618A" d="M344.789,106.756c-0.126-5.675-4.013-10.318-9.623-11.395
			c-1.216-0.232-2.482-0.273-3.724-0.273c-87.647-0.012-175.295-0.011-262.942-0.011c-0.592,0-1.185-0.014-1.776,0.01
			c-5.427,0.216-9.965,3.904-11.164,9.215c-0.315,1.391-0.339,2.867-0.34,4.305c-0.016,60.932-0.013,121.864-0.013,182.795
			c0,0.658-0.01,1.316,0.008,1.974c0.143,5.099,3.488,9.604,8.395,10.984c1.613,0.454,3.374,0.541,5.066,0.543
			c43.757,0.027,87.515,0.021,131.273,0.021c43.626,0,87.252,0.001,130.877-0.002c0.988,0,1.978,0.016,2.961-0.052
			c5.044-0.348,9.296-3.773,10.555-8.66c0.371-1.44,0.436-2.989,0.436-4.489c0.021-61.13,0.018-122.258,0.018-183.388
			C344.794,107.809,344.801,107.281,344.789,106.756z M301.068,123.5c-33.878,30-67.437,58.922-101.084,88.321
			C166.341,182.434,132.773,153.5,98.876,123.5C166.419,123.5,233.509,123.5,301.068,123.5z M79.179,137.953
			c24.759,21.636,49.319,43.097,74.09,64.743c-24.697,22.019-49.301,43.955-73.97,65.949
			C78.884,267.049,78.773,140.718,79.179,137.953z M298.808,280.67c-0.035,0.051-0.092,0.122-0.14,0.122
			c-65.34,0.028-130.679,0.053-196.018,0.071c-0.246,0-0.491-0.072-1.19-0.183c23.407-20.869,46.544-41.497,69.784-62.217
			c0.652,0.546,1.206,0.992,1.74,1.46c6.245,5.453,12.493,10.903,18.725,16.371c1.559,1.369,3.276,2.425,5.301,2.918
			c4.148,1.011,7.812,0.018,11.005-2.767c6.102-5.318,12.188-10.65,18.283-15.977c0.882-0.771,1.771-1.534,2.769-2.398
			c23.379,20.844,46.638,41.583,69.853,62.28C298.848,280.56,298.84,280.624,298.808,280.67z M320.953,268.213
			c-24.826-22.131-49.31-43.958-73.895-65.875c24.614-21.505,49.078-42.876,73.499-64.213c0.163,0.047,0.23,0.054,0.286,0.085
			c0.049,0.028,0.117,0.083,0.117,0.127c0.033,42.556,0.062,85.113,0.088,127.67C321.049,266.582,321.001,267.157,320.953,268.213z"
			/>
	</g>
</g>
</svg>
