<?xml version="1.0" encoding="utf-8"?>
<!-- Generator: Adobe Illustrator 16.0.0, SVG Export Plug-In . SVG Version: 6.00 Build 0)  -->
<!DOCTYPE svg PUBLIC "-//W3C//DTD SVG 1.1//EN" "http://www.w3.org/Graphics/SVG/1.1/DTD/svg11.dtd">
<svg version="1.1" id="Layer_1" xmlns="http://www.w3.org/2000/svg" xmlns:xlink="http://www.w3.org/1999/xlink" x="0px" y="0px"
	 width="334.492px" height="186px" viewBox="0 0 334.492 186" enable-background="new 0 0 334.492 186" xml:space="preserve">
<rect x="-1.097" y="-0.781" fill="#112C54" width="335.393" height="187.562"/>
<g>
	<defs>
		<rect id="SVGID_1_" x="-9.91" y="-17.234" width="352.749" height="220.468"/>
	</defs>
	<clipPath id="SVGID_2_">
		<use xlink:href="#SVGID_1_"  overflow="visible"/>
	</clipPath>
	<path clip-path="url(#SVGID_2_)" fill="#FFFFFF" d="M174.257,50.699c1.749,1.154,3.12,2.663,4.087,4.416l5.079,0.016l0.128-0.017
		c-1.241-3.358-3.486-6.337-6.65-8.425c-8.195-5.41-19.436-2.834-25.106,5.757l3.82,2.52l22.037,14.545l3.918,2.618
		c0.185-0.279,0.36-0.562,0.529-0.848c0.177-0.3,0.345-0.603,0.503-0.909l-3.971-2.593c-0.002,0.003-0.003,0.006-0.005,0.009
		l-21.739-14.48C161.353,48.281,168.735,47.054,174.257,50.699"/>
	<path clip-path="url(#SVGID_2_)" fill="#FFFFFF" d="M167.143,80.949c-8.089,0-14.995-5.067-17.719-12.199l-2.829-0.118
		c2.802,8.673,10.942,14.947,20.548,14.947c8.976,0,16.671-5.477,19.93-13.271l-2.83-0.118
		C181.185,76.557,174.678,80.949,167.143,80.949"/>
	<path clip-path="url(#SVGID_2_)" fill="#FFFFFF" d="M155.559,68.568h-5.172c2.679,6.452,9.172,11.12,16.757,11.12
		c5.668,0,10.727-2.701,14.04-6.786l-3.764-2.645l-22.042-14.756v0.001l-3.839-2.491c-0.316,0.589-0.666,1.199-0.916,1.825
		l3.747,2.599c0.004-0.016-0.006-0.032-0.001-0.047l21.56,14.198c-2.352,2.038-5.426,3.45-8.782,3.45
		C162.208,75.037,157.887,71.983,155.559,68.568"/>
	<polyline clip-path="url(#SVGID_2_)" fill="#FFFFFF" points="150.361,54.74 150.36,54.739 150.356,54.752 150.361,54.74 	"/>
	<path clip-path="url(#SVGID_2_)" fill="#FFFFFF" d="M167.143,42.024c8.303,0,15.393,5.291,18.207,12.501h2.802
		c-2.931-7.97-11.228-15.137-21.008-15.137c-9.779,0-18.077,7.167-21.007,15.137h2.801C151.75,47.315,158.84,42.024,167.143,42.024"
		/>
	<path clip-path="url(#SVGID_2_)" fill="#FFFFFF" d="M30.678,127.967c0.677,3.982,4.236,4.532,6.692,4.532
		c2.33,0,5.888-0.678,5.888-3.771c0-6.438-18.002-2.287-18.002-13.596c0-6.227,5.845-9.15,11.31-9.15
		c6.311,0,12.114,2.754,12.114,9.742l-6.438-0.932c-0.805-3.516-3.897-3.643-5.972-3.643c-2.118,0-4.575,0.89-4.575,3.432
		c0,2.244,1.44,2.753,9.022,4.574c2.245,0.551,8.979,1.949,8.979,8.811c0,5.549-4.321,9.699-12.581,9.699
		c-6.777,0-12.876-3.303-12.876-10.758L30.678,127.967z"/>
	<polygon clip-path="url(#SVGID_2_)" fill="#FFFFFF" points="61.303,112.295 51.688,112.295 51.688,106.745 77.483,106.745 
		77.483,112.337 67.953,112.337 67.953,136.947 61.303,136.947 	"/>
	<polygon clip-path="url(#SVGID_2_)" fill="#FFFFFF" points="86.973,124.875 86.973,131.312 104.043,131.312 104.043,136.904 
		80.535,136.904 80.535,106.576 102.603,106.576 102.603,112.168 86.973,112.168 86.973,118.986 100.781,118.986 100.781,124.875 	
		"/>
	<polygon clip-path="url(#SVGID_2_)" fill="#FFFFFF" points="114.422,124.875 114.422,131.312 131.492,131.312 131.492,136.904 
		107.983,136.904 107.983,106.576 130.051,106.576 130.051,112.168 114.422,112.168 114.422,118.986 128.23,118.986 128.23,124.875 
			"/>
	<polygon clip-path="url(#SVGID_2_)" fill="#FFFFFF" points="135.56,136.734 135.56,106.576 142.083,106.576 142.083,131.143 
		157.585,131.143 157.585,136.734 	"/>
	<path clip-path="url(#SVGID_2_)" fill="#FFFFFF" d="M165.846,127.967c0.678,3.982,4.236,4.532,6.692,4.532
		c2.331,0,5.889-0.678,5.889-3.771c0-6.438-18.003-2.287-18.003-13.596c0-6.227,5.846-9.15,11.31-9.15
		c6.312,0,12.114,2.754,12.114,9.742l-6.438-0.932c-0.804-3.516-3.896-3.643-5.973-3.643c-2.117,0-4.574,0.89-4.574,3.432
		c0,2.244,1.44,2.753,9.022,4.574c2.245,0.551,8.98,1.949,8.98,8.811c0,5.549-4.321,9.699-12.58,9.699
		c-6.778,0-12.877-3.303-12.877-10.758L165.846,127.967z"/>
	<polygon clip-path="url(#SVGID_2_)" fill="#FFFFFF" points="208.713,123.984 194.692,123.984 194.692,136.861 188.212,136.861 
		188.212,106.533 194.692,106.533 194.692,117.504 208.713,117.504 208.713,106.619 215.235,106.619 215.235,136.861 
		208.713,136.861 	"/>
	<path clip-path="url(#SVGID_2_)" fill="#FFFFFF" d="M217.313,136.947l13.724-30.202h6.692l13.512,30.202h-6.438l-2.965-6.693
		h-15.292l-3.177,6.693H217.313z M234.468,112.422l-5.082,11.69h10.038l-4.914-11.69H234.468z"/>
	<path clip-path="url(#SVGID_2_)" fill="#FFFFFF" d="M271.617,125.764l8.472,11.225h-8.133l-7.624-10.885h-3.262v10.885h-6.692
		v-30.285h13.639c7.624,0,10.547,4.786,10.547,9.699c0,4.109-2.159,8.26-7.2,9.361H271.617z M261.07,111.871v9.106h5.167
		c3.178,0,5.804-0.72,5.804-4.575c0-3.938-2.626-4.531-5.804-4.531H261.07z"/>
	<path clip-path="url(#SVGID_2_)" fill="#FFFFFF" d="M284.96,106.703h13.64c7.582,0,10.462,4.786,10.462,9.699
		c0,4.914-2.88,9.701-10.462,9.701h-6.988v10.844h-6.651V106.703z M291.611,120.936h5.167c3.05,0,5.846-0.678,5.846-4.533
		c0-3.854-2.796-4.531-5.846-4.531h-5.167V120.936z"/>
	<path clip-path="url(#SVGID_2_)" fill="#FFFFFF" d="M27.828,153.504c-2.253,0-4.079-1.863-4.079-4.166
		c0-2.279,1.826-4.166,4.079-4.166c1.543,0,2.85,0.875,3.538,2.129c-0.688,0.367-0.744,0.402-1.51,0.783
		c-0.394-0.703-1.16-1.186-2.027-1.186c-1.318,0-2.388,1.105-2.388,2.439c0,1.346,1.07,2.439,2.388,2.439
		c0.901,0,1.689-0.494,2.095-1.277c0.766,0.402,0.789,0.449,1.51,0.783C30.746,152.607,29.416,153.504,27.828,153.504"/>
	<path clip-path="url(#SVGID_2_)" fill="#FFFFFF" d="M33.449,153.48l3.65-8.205h1.78l3.593,8.205H40.76l-0.789-1.818h-4.067
		l-0.845,1.818H33.449z M38.011,146.818l-1.352,3.176h2.67l-1.307-3.176H38.011z"/>
	<path clip-path="url(#SVGID_2_)" fill="#FFFFFF" d="M49.704,150.891c0,1.061-0.281,2.787-2.681,2.787
		c-0.901,0-1.757-0.334-2.253-1.082c-0.271-0.369-0.395-0.955-0.395-1.186l1.634-0.277c0,0.611,0.168,1.025,0.991,1.025
		c0.935,0,0.935-0.76,0.935-1.348v-5.547h1.769V150.891z"/>
	<path clip-path="url(#SVGID_2_)" fill="#FFFFFF" d="M52.182,153.48l3.65-8.205h1.779l3.594,8.205h-1.712l-0.788-1.818h-4.067
		l-0.845,1.818H52.182z M56.745,146.818l-1.352,3.176h2.67l-1.307-3.176H56.745z"/>
	<path clip-path="url(#SVGID_2_)" fill="#FFFFFF" d="M64.934,151.041c0.18,1.082,1.126,1.232,1.78,1.232
		c0.62,0,1.565-0.186,1.565-1.025c0-1.748-4.787-0.621-4.787-3.693c0-1.693,1.554-2.486,3.007-2.486
		c1.679,0,3.222,0.748,3.222,2.646l-1.712-0.254c-0.214-0.955-1.036-0.988-1.588-0.988c-0.563,0-1.217,0.24-1.217,0.932
		c0,0.609,0.383,0.748,2.399,1.242c0.597,0.15,2.388,0.531,2.388,2.395c0,1.508-1.149,2.635-3.346,2.635
		c-1.803,0-3.424-0.896-3.424-2.922L64.934,151.041z"/>
	<polygon clip-path="url(#SVGID_2_)" fill="#FFFFFF" points="79.342,151.951 79.342,153.48 77.63,153.48 77.63,145.229 
		83.499,145.229 83.499,146.748 79.342,146.748 79.342,148.602 83.014,148.602 83.014,150.201 79.342,150.201 	"/>
	<path clip-path="url(#SVGID_2_)" fill="#FFFFFF" d="M93.029,150.373c0,2.223-1.285,3.305-3.437,3.305
		c-2.174,0-3.425-1.059-3.425-3.305v-5.109h1.769v5.109c0,0.898,0.226,1.785,1.656,1.785c1.262,0,1.667-0.553,1.667-1.785v-5.109
		h1.769V150.373z"/>
	<polygon clip-path="url(#SVGID_2_)" fill="#FFFFFF" points="97.749,150.201 97.749,151.951 102.289,151.951 102.289,153.471 
		96.037,153.471 96.037,145.229 101.906,145.229 101.906,146.748 97.749,146.748 97.749,148.602 101.421,148.602 101.421,150.201 	
		"/>
	<path clip-path="url(#SVGID_2_)" fill="#FFFFFF" d="M109.814,150.443l2.252,3.049h-2.163l-2.028-2.957h-0.867v2.957h-1.78v-8.229
		h3.627c2.028,0,2.805,1.301,2.805,2.635c0,1.117-0.575,2.244-1.915,2.545H109.814z M107.009,146.668v2.475h1.374
		c0.845,0,1.543-0.195,1.543-1.244c0-1.07-0.698-1.23-1.543-1.23H107.009z"/>
	<polygon clip-path="url(#SVGID_2_)" fill="#FFFFFF" points="116.888,146.783 114.331,146.783 114.331,145.275 121.191,145.275 
		121.191,146.795 118.657,146.795 118.657,153.48 116.888,153.48 	"/>
	<polygon clip-path="url(#SVGID_2_)" fill="#FFFFFF" points="125.404,150.201 125.404,151.951 129.944,151.951 129.944,153.471 
		123.692,153.471 123.692,145.229 129.561,145.229 129.561,146.748 125.404,146.748 125.404,148.602 129.077,148.602 
		129.077,150.201 	"/>
	<path clip-path="url(#SVGID_2_)" fill="#FFFFFF" d="M134.089,151.041c0.181,1.082,1.127,1.232,1.781,1.232
		c0.62,0,1.565-0.186,1.565-1.025c0-1.748-4.787-0.621-4.787-3.693c0-1.693,1.554-2.486,3.008-2.486
		c1.678,0,3.221,0.748,3.221,2.646l-1.711-0.254c-0.215-0.955-1.037-0.988-1.589-0.988c-0.562,0-1.216,0.24-1.216,0.932
		c0,0.609,0.383,0.748,2.399,1.242c0.598,0.15,2.389,0.531,2.389,2.395c0,1.508-1.149,2.635-3.346,2.635
		c-1.802,0-3.424-0.896-3.424-2.922L134.089,151.041z"/>
	<polygon clip-path="url(#SVGID_2_)" fill="#FFFFFF" points="149.072,150.281 146.109,145.264 148.103,145.264 149.984,148.51 
		151.854,145.264 153.825,145.264 150.841,150.328 150.841,153.48 149.072,153.48 	"/>
	<polygon clip-path="url(#SVGID_2_)" fill="#FFFFFF" points="162.804,150.201 162.804,151.951 167.344,151.951 167.344,153.471 
		161.091,153.471 161.091,145.229 166.961,145.229 166.961,146.748 162.804,146.748 162.804,148.602 166.476,148.602 
		166.476,150.201 	"/>
	<path clip-path="url(#SVGID_2_)" fill="#FFFFFF" d="M177.943,153.309h-2.974c-0.36,0.115-0.743,0.172-1.138,0.172
		c-2.254,0-4.09-1.875-4.09-4.178c0-2.336,1.836-4.201,4.09-4.201c2.287,0,4.111,1.865,4.111,4.201c0,1.014-0.292,1.658-0.878,2.291
		h0.868L177.943,153.309z M171.421,149.303c0,1.348,1.093,2.43,2.411,2.43c1.34,0,2.399-1.082,2.399-2.43
		c0-1.369-1.06-2.451-2.399-2.451C172.514,146.852,171.421,147.934,171.421,149.303"/>
	<path clip-path="url(#SVGID_2_)" fill="#FFFFFF" d="M187.564,150.373c0,2.223-1.284,3.305-3.437,3.305
		c-2.174,0-3.424-1.059-3.424-3.305v-5.109h1.769v5.109c0,0.898,0.225,1.785,1.655,1.785c1.263,0,1.668-0.553,1.668-1.785v-5.109
		h1.769V150.373z"/>
	<rect x="190.774" y="145.264" clip-path="url(#SVGID_2_)" fill="#FFFFFF" width="1.769" height="8.217"/>
	<path clip-path="url(#SVGID_2_)" fill="#FFFFFF" d="M195.787,145.264h3.628c2.016,0,2.782,1.301,2.782,2.635
		c0,1.336-0.767,2.637-2.782,2.637h-1.858v2.945h-1.77V145.264z M197.557,149.131h1.373c0.812,0,1.556-0.184,1.556-1.232
		c0-1.047-0.744-1.23-1.556-1.23h-1.373V149.131z"/>
	<path clip-path="url(#SVGID_2_)" fill="#FFFFFF" d="M208.573,153.586c-2.299,0-4.157-1.9-4.157-4.248
		c0-2.359,1.858-4.26,4.157-4.26c2.287,0,4.168,1.9,4.168,4.26C212.741,151.686,210.86,153.586,208.573,153.586 M206.117,149.338
		c0,1.369,1.115,2.508,2.456,2.508s2.434-1.139,2.434-2.508s-1.093-2.52-2.434-2.52S206.117,147.969,206.117,149.338"/>
	<path clip-path="url(#SVGID_2_)" fill="#FFFFFF" d="M216.65,151.041c0.18,1.082,1.126,1.232,1.779,1.232
		c0.619,0,1.566-0.186,1.566-1.025c0-1.748-4.788-0.621-4.788-3.693c0-1.693,1.555-2.486,3.008-2.486
		c1.679,0,3.222,0.748,3.222,2.646l-1.712-0.254c-0.214-0.955-1.037-0.988-1.589-0.988c-0.562,0-1.217,0.24-1.217,0.932
		c0,0.609,0.384,0.748,2.4,1.242c0.597,0.15,2.388,0.531,2.388,2.395c0,1.508-1.149,2.635-3.346,2.635
		c-1.803,0-3.425-0.896-3.425-2.922L216.65,151.041z"/>
	<path clip-path="url(#SVGID_2_)" fill="#FFFFFF" d="M229.548,145.264h3.785c1.532,0,2.569,0.506,2.569,2.037
		c0,0.828-0.372,1.357-1.094,1.715c0.992,0.287,1.477,1.059,1.477,2.084c0,1.668-1.386,2.381-2.839,2.381h-3.898V145.264z
		 M231.316,148.59h1.792c0.631,0,1.081-0.289,1.081-0.979c0-0.771-0.586-0.943-1.216-0.943h-1.657V148.59z M231.316,152.076h1.894
		c0.687,0,1.307-0.23,1.307-1.08c0-0.84-0.507-1.174-1.272-1.174h-1.928V152.076z"/>
	<polygon clip-path="url(#SVGID_2_)" fill="#FFFFFF" points="239,153.424 239,145.229 240.734,145.229 240.734,151.904 
		244.857,151.904 244.857,153.424 	"/>
	<rect x="247.538" y="145.264" clip-path="url(#SVGID_2_)" fill="#FFFFFF" width="1.769" height="8.217"/>
	<polygon clip-path="url(#SVGID_2_)" fill="#FFFFFF" points="253.938,147.807 253.938,153.492 252.394,153.492 252.394,145.24 
		254.422,145.24 258.015,150.373 258.015,145.24 259.514,145.24 259.514,153.492 258.015,153.492 	"/>
	<path clip-path="url(#SVGID_2_)" fill="#FFFFFF" d="M262.589,145.264h3.47c2.083,0,3.649,1.348,3.649,4.062
		c0,2.383-1.194,4.154-3.649,4.154h-3.47V145.264z M264.357,151.961h1.577c1.024,0,2.005-0.643,2.005-2.463
		c0-1.656-0.574-2.715-2.321-2.715h-1.261V151.961z"/>
	<path clip-path="url(#SVGID_2_)" fill="#FFFFFF" d="M271.86,153.48l3.649-8.205h1.78l3.593,8.205h-1.711l-0.79-1.818h-4.066
		l-0.845,1.818H271.86z M276.422,146.818l-1.352,3.176h2.67l-1.307-3.176H276.422z"/>
	<path clip-path="url(#SVGID_2_)" fill="#FFFFFF" d="M283.406,145.264h3.47c2.084,0,3.65,1.348,3.65,4.062
		c0,2.383-1.194,4.154-3.65,4.154h-3.47V145.264z M285.175,151.961h1.577c1.025,0,2.006-0.643,2.006-2.463
		c0-1.656-0.575-2.715-2.321-2.715h-1.262V151.961z"/>
	<path clip-path="url(#SVGID_2_)" fill="#FFFFFF" d="M297.025,153.586c-2.297,0-4.156-1.9-4.156-4.248
		c0-2.359,1.859-4.26,4.156-4.26c2.287,0,4.169,1.9,4.169,4.26C301.194,151.686,299.312,153.586,297.025,153.586 M294.57,149.338
		c0,1.369,1.114,2.508,2.455,2.508s2.434-1.139,2.434-2.508s-1.093-2.52-2.434-2.52S294.57,147.969,294.57,149.338"/>
	<path clip-path="url(#SVGID_2_)" fill="#FFFFFF" d="M305.103,151.041c0.181,1.082,1.127,1.232,1.78,1.232
		c0.619,0,1.565-0.186,1.565-1.025c0-1.748-4.788-0.621-4.788-3.693c0-1.693,1.556-2.486,3.009-2.486
		c1.679,0,3.222,0.748,3.222,2.646l-1.713-0.254c-0.214-0.955-1.036-0.988-1.588-0.988c-0.563,0-1.217,0.24-1.217,0.932
		c0,0.609,0.383,0.748,2.399,1.242c0.597,0.15,2.389,0.531,2.389,2.395c0,1.508-1.149,2.635-3.346,2.635
		c-1.804,0-3.425-0.896-3.425-2.922L305.103,151.041z"/>
</g>
</svg>
